<svg xmlns="http://www.w3.org/2000/svg" viewBox="0 0 512 512"><defs><linearGradient id="g" x1="0" x2="1" y1="0" y2="1"><stop offset="0" stop-color="#0f4c3a"/><stop offset="1" stop-color="#17694f"/></linearGradient><pattern id="kh" width="96" height="96" patternUnits="userSpaceOnUse"><g fill="none" stroke="#c69e5a" stroke-opacity=".12"><path d="M27 27H69V69H27z"/><path d="M27 27H69V69H27z" transform="rotate(45 48 48)"/></g></pattern></defs><rect width="512" height="512" fill="url(#g)" rx="112"/><rect width="512" height="512" fill="url(#kh)" rx="112"/><path fill="#e9f1ec" stroke="#c69e5a" stroke-width="18" d="M168 368 V260 Q168 172 256 136 Q344 172 344 260 V368"/><path fill="none" stroke="#c69e5a" stroke-width="8" d="M180 368 V268 Q180 192 256 156 Q332 192 332 268 V368" opacity=".5"/><path fill="#0f4c3a" d="M188 268 h96 l-16 64 a72 72 0 0 1 -72 76 h-32 a72 72 0 0 1 -72 -76 Z"/><path stroke="#e9f1ec" stroke-width="20" d="M208 280h56M210 298h48M212 312h32"/><circle cx="256" cy="224" r="20" fill="#c69e5a"/><path fill="#c69e5a" d="M256 392 c-76 0 -112 260 -112 260 h224 c0 0 -36-260 -56-260 Z" opacity=".18"/><rect width="384" height="384" x="64" y="64" fill="none" stroke="#c69e5a" stroke-dasharray="8,8" stroke-width="2" opacity=".3" rx="84"/></svg>