<svg xmlns="http://www.w3.org/2000/svg" viewBox="0 0 256 256"><defs><linearGradient id="g" x1="0" x2="1" y1="0" y2="1"><stop offset="0" stop-color="#0f4c3a"/><stop offset="1" stop-color="#17694f"/></linearGradient><pattern id="kh" width="48" height="48" patternUnits="userSpaceOnUse"><g fill="none" stroke="#c69e5a" stroke-opacity=".1"><path d="M13 13H34V34H13z"/><path d="M13 13H34V34H13z" transform="rotate(45 24 24)"/></g></pattern></defs><rect width="256" height="256" fill="url(#g)" rx="56"/><rect width="256" height="256" fill="url(#kh)" rx="56"/><path fill="#e9f1ec" stroke="#c69e5a" stroke-width="10" d="M86 152 V104 Q86 72 128 56 Q170 72 170 104 V152"/><path fill="none" stroke="#c69e5a" stroke-width="5" d="M92 152 V108 Q92 80 128 64 Q164 80 164 108 V152" opacity=".5"/><path fill="#0f4c3a" d="M96 108 h48 l-8 32 a40 40 0 0 1 -40 32 h-16 a40 40 0 0 1 -40 -32 Z"/><path stroke="#e9f1ec" stroke-width="12" d="M108 116h32M110 128h24M112 136h16"/><circle cx="128" cy="96" r="12" fill="#c69e5a"/><path fill="#c69e5a" d="M128 160 c-44 0 -68 148 -68 148 h136 c0 0 -24-148 -44-148 Z" opacity=".25"/></svg>