<svg xmlns="http://www.w3.org/2000/svg" viewBox="0 0 512 512"><defs><linearGradient id="bg" x1="0" x2="1" y1="0" y2="1"><stop offset="0" stop-color="#0f4c3a"/><stop offset="1" stop-color="#17694f"/></linearGradient><pattern id="kh" width="64" height="64" patternUnits="userSpaceOnUse"><g fill="none" stroke="#c69e5a" stroke-opacity=".15"><path d="M17 17H47V47H17z"/><path d="M17 17H47V47H17z" transform="rotate(45 32 32)"/></g></pattern></defs><path fill="url(#bg)" d="M0 0H512V512H0z"/><path fill="url(#kh)" d="M0 0H512V512H0z"/><path fill="#e9f1ec" stroke="#c69e5a" stroke-width="10" d="M168 336 V196 Q168 132 256 104 Q344 132 344 196 V336"/><path fill="none" stroke="#c69e5a" stroke-width="5" d="M180 336 V198 Q180 144 256 118 Q332 144 332 198 V336" opacity=".5"/><path fill="#0f4c3a" d="M186 198 h72 l-10 38 a44 44 0 0 1 -44 36 h-20 a44 44 0 0 1 -44 -36 Z"/><path stroke="#e9f1ec" stroke-width="12" d="M200 210h44M202 220h36M204 228h28"/><circle cx="256" cy="176" r="14" fill="#c69e5a"/><path fill="#c69e5a" d="M256 280 c-56 0 -84 180 -84 180 h168 c0 0 -28-180 -56-180 Z" opacity=".25"/></svg>