<svg xmlns="http://www.w3.org/2000/svg" viewBox="0 0 1200 630">
  <defs>
    <linearGradient id="bg" x1="0" y1="0" x2="1" y2="1">
      <stop offset="0" stop-color="#0F4C3A"/><stop offset="1" stop-color="#0A3527"/>
    </linearGradient>
    <pattern id="kh" width="80" height="80" patternUnits="userSpaceOnUse">
      <g fill="none" stroke="#C69E5A" stroke-opacity=".08"><rect x="22" y="22" width="36" height="36"/><rect x="22" y="22" width="36" height="36" transform="rotate(45 40 40)"/></g>
    </pattern>
  </defs>
  <rect width="1200" height="630" fill="url(#bg)"/>
  <rect width="1200" height="630" fill="url(#kh)"/>
  <rect x="60" y="60" width="280" height="280" rx="40" fill="none" stroke="#C69E5A" stroke-width="5" opacity=".4"/>
  <rect x="80" y="80" width="240" height="240" rx="32" fill="none" stroke="#C69E5A" stroke-width="3" opacity=".3"/>
  <path d="M200 160 Q160 200 160 240 Q160 280 200 320 Q240 280 240 240 Q240 200 200 160Z" fill="#E9F1EC" stroke="#C69E5A" stroke-width="4"/>
  <path d="M180 160 L220 140 L260 160" stroke="#C69E5A" stroke-width="3" fill="none"/>
  <rect x="400" y="100" width="720" height="120" rx="16" fill="none" stroke="#C69E5A" stroke-width="3" opacity=".4"/>
  <text x="440" y="140" fill="#E9F1EC" font-size="42" font-weight="800" font-family="Cairo,sans-serif">رحماء بينهم</text>
  <text x="440" y="180" fill="#C69E5A" font-size="20" font-family="Cairo,sans-serif">مؤسسة إنسانية تنموية مستقلة مرخصة برقم ٤٨٢</text>
  <rect x="400" y="250" width="720" height="80" rx="12" fill="none" stroke="#C69E5A" stroke-width="2" opacity=".3"/>
  <text x="440" y="285" fill="#E9F1EC" font-size="20" font-family="Cairo,sans-serif">إغاثة  ·  تعليم  ·  تنمية  ·  تبرع</text>
  <circle cx="600" cy="440" r="60" fill="none" stroke="#C69E5A" stroke-width="4" opacity=".3"/>
  <circle cx="600" cy="440" r="35" fill="#C69E5A" opacity=".2"/>
  <path d="M600 405 Q570 430 570 440 Q570 450 600 475 Q630 450 630 440 Q630 430 600 405Z" fill="#E9F1EC" stroke="#C69E5A" stroke-width="3"/>
  <text x="440" y="540" fill="#E9F1EC" font-size="18" font-family="Cairo,sans-serif">اليمن  ·  منذ 2014  ·  ١٢٬٨٤٧ مستفيدًا</text>
  <text x="900" y="540" fill="#C69E5A" font-size="14" font-family="Cairo,sans-serif">rbdcye.org</text>
  <rect y="560" width="1200" height="70" fill="#08251B"/>
  <g fill="#C69E5A"><path d="M60 590 l10 -10 10 10 -10 10 Z M1130 590 l10 -10 10 10 -10 10 Z"/><rect x="540" y="586" width="120" height="4" rx="2" opacity=".6"/></g>
</svg>