<svg xmlns="http://www.w3.org/2000/svg" viewBox="0 0 800 600">
  <defs>
    <linearGradient id="bg" x1="0" y1="0" x2="1" y2="1">
      <stop offset="0" stop-color="#0A3527"/><stop offset=".55" stop-color="#0F4C3A"/><stop offset="1" stop-color="#17694F"/>
    </linearGradient>
    <pattern id="kh" width="96" height="96" patternUnits="userSpaceOnUse">
      <g fill="none" stroke="#C69E5A" stroke-opacity=".13"><rect x="27" y="27" width="42" height="42"/><rect x="27" y="27" width="42" height="42" transform="rotate(45 48 48)"/></g>
    </pattern>
  </defs>
  <rect width="800" height="600" fill="url(#bg)"/>
  <rect width="800" height="600" fill="url(#kh)"/>
  <path d="M282 388 V246 Q282 152 400 116 Q518 152 518 246 V388 Z" fill="#FDFBF6" stroke="#C69E5A" stroke-width="5"/>
  <path d="M300 388 V252 Q300 172 400 140 Q500 172 500 252 V388 Z" fill="none" stroke="#C69E5A" stroke-width="2" opacity=".5"/>
  <path d="M400 196 a52 52 0 0 1 52 52 v18 h-104 v-18 a52 52 0 0 1 52 -52 Z" fill="#0F4C3A"/>
  <rect x="330" y="266" width="140" height="66" rx="8" fill="#0F4C3A"/>
  <path d="M394 158 h12 v24 h-12 z M400 148 a7 7 0 1 1 -.01 0 Z" fill="#C69E5A"/>
  <path d="M400 148 c8 -8 20 -6 24 2 -10 -2 -16 0 -20 6 Z" fill="#C69E5A"/>
  <rect x="306" y="238" width="12" height="94" rx="4" fill="#17694F"/>
  <circle cx="312" cy="230" r="9" fill="#C69E5A"/>
  <rect x="482" y="238" width="12" height="94" rx="4" fill="#17694F"/>
  <circle cx="488" cy="230" r="9" fill="#C69E5A"/>
  <path d="M368 332 v-40 a32 32 0 0 1 64 0 v40 Z" fill="#FDFBF6" opacity=".9"/>
  <rect y="540" width="800" height="60" fill="#08251B"/>
  <g fill="#C69E5A"><path d="M60 570 l10 -10 10 10 -10 10 Z M730 570 l10 -10 10 10 -10 10 Z"/><rect x="340" y="566" width="120" height="4" rx="2" opacity=".6"/></g>
</svg>
