<svg xmlns="http://www.w3.org/2000/svg" viewBox="0 0 800 600">
  <defs>
    <linearGradient id="bg" x1="0" y1="0" x2="1" y2="1">
      <stop offset="0" stop-color="#0A3527"/><stop offset=".55" stop-color="#0F4C3A"/><stop offset="1" stop-color="#17694F"/>
    </linearGradient>
    <pattern id="kh" width="96" height="96" patternUnits="userSpaceOnUse">
      <g fill="none" stroke="#C69E5A" stroke-opacity=".13"><rect x="27" y="27" width="42" height="42"/><rect x="27" y="27" width="42" height="42" transform="rotate(45 48 48)"/></g>
    </pattern>
  </defs>
  <rect width="800" height="600" fill="url(#bg)"/>
  <rect width="800" height="600" fill="url(#kh)"/>
  <path d="M282 388 V246 Q282 152 400 116 Q518 152 518 246 V388 Z" fill="#FDFBF6" stroke="#C69E5A" stroke-width="5"/>
  <path d="M300 388 V252 Q300 172 400 140 Q500 172 500 252 V388 Z" fill="none" stroke="#C69E5A" stroke-width="2" opacity=".5"/>
  <path d="M400 340 C400 310 398 290 400 264" stroke="#0F4C3A" stroke-width="9" fill="none" stroke-linecap="round"/>
  <path d="M400 292 C376 292 356 274 354 250 C380 250 400 266 400 292 Z" fill="#0F4C3A"/>
  <path d="M400 268 C424 268 444 250 446 226 C420 226 400 242 400 268 Z" fill="#0F4C3A"/>
  <circle cx="400" cy="234" r="9" fill="#C69E5A"/>
  <path d="M310 340 q90 46 180 0 l0 14 q-90 46 -180 0 Z" fill="#C69E5A"/>
  <path d="M310 354 q90 46 180 0 v10 a14 14 0 0 1 -14 14 h-152 a14 14 0 0 1 -14 -14 Z" fill="#0F4C3A"/>
  <circle cx="352" cy="308" r="7" fill="#C69E5A"/><circle cx="448" cy="308" r="7" fill="#C69E5A"/>
  <rect y="540" width="800" height="60" fill="#08251B"/>
  <g fill="#C69E5A"><path d="M60 570 l10 -10 10 10 -10 10 Z M730 570 l10 -10 10 10 -10 10 Z"/><rect x="340" y="566" width="120" height="4" rx="2" opacity=".6"/></g>
</svg>
