<svg xmlns="http://www.w3.org/2000/svg" viewBox="0 0 800 600">
  <defs>
    <linearGradient id="bg" x1="0" y1="0" x2="1" y2="1">
      <stop offset="0" stop-color="#0A372A"/><stop offset=".55" stop-color="#0F4C3A"/><stop offset="1" stop-color="#155A45"/>
    </linearGradient>
    <pattern id="khatam" width="96" height="96" patternUnits="userSpaceOnUse">
      <g fill="none" stroke="#C69E5A" stroke-opacity=".16"><rect x="27" y="27" width="42" height="42"/><rect x="27" y="27" width="42" height="42" transform="rotate(45 48 48)"/></g>
    </pattern>
    <linearGradient id="gold" x1="0" y1="0" x2="1" y2="1">
      <stop offset="0" stop-color="#D9B87C"/><stop offset="1" stop-color="#B07A2A"/>
    </linearGradient>
  </defs>
  <rect width="800" height="600" fill="url(#bg)"/>
  <rect width="800" height="600" fill="url(#khatam)"/>
  <path d="M400 78 C 515 78 572 160 572 250 L572 482 L228 482 L228 250 C228 160 285 78 400 78 Z" fill="#FDFBF6" opacity=".97"/>
  <path d="M400 66 C 525 66 584 154 584 250 L584 494 L216 494 L216 250 C216 154 275 66 400 66 Z" fill="none" stroke="url(#gold)" stroke-width="3"/>
  <!-- سلة غذائية -->
  <g fill="none" stroke="#0F4C3A" stroke-width="7" stroke-linecap="round" stroke-linejoin="round">
    <path d="M310 320 L490 320 L468 432 L332 432 Z" fill="#F6EFDD"/>
    <path d="M330 320 C330 288 356 268 400 268 C444 268 470 288 470 320"/>
    <path d="M344 344 L456 344 M350 368 L450 368 M357 392 L443 392 M364 414 L436 414"/>
  </g>
  <!-- رغيف وخضار -->
  <g stroke-linecap="round" stroke-linejoin="round">
    <ellipse cx="352" cy="296" rx="30" ry="16" fill="#E9D9B5" stroke="#B07A2A" stroke-width="4"/>
    <circle cx="430" cy="292" r="15" fill="#F0FDF4" stroke="#0F4C3A" stroke-width="4"/>
    <path d="M430 277 L430 262 M424 268 L430 262 L436 268" fill="none" stroke="#0F4C3A" stroke-width="4"/>
  </g>
  <!-- قارورة ماء -->
  <g fill="none" stroke="#0F4C3A" stroke-width="5" stroke-linecap="round">
    <rect x="500" y="300" width="34" height="86" rx="12" fill="#EBF7F4"/>
    <path d="M509 300 L509 288 L525 288 L525 300"/>
    <path d="M508 340 L526 340 M508 356 L526 356"/>
  </g>
  <rect y="520" width="800" height="80" fill="#071F17"/>
  <rect y="520" width="800" height="4" fill="url(#gold)"/>
</svg>
