<svg xmlns="http://www.w3.org/2000/svg" viewBox="0 0 800 600">
  <defs>
    <linearGradient id="bg" x1="0" y1="0" x2="1" y2="1">
      <stop offset="0" stop-color="#0A3527"/><stop offset=".55" stop-color="#0F4C3A"/><stop offset="1" stop-color="#17694F"/>
    </linearGradient>
    <pattern id="kh" width="96" height="96" patternUnits="userSpaceOnUse">
      <g fill="none" stroke="#C69E5A" stroke-opacity=".13"><rect x="27" y="27" width="42" height="42"/><rect x="27" y="27" width="42" height="42" transform="rotate(45 48 48)"/></g>
    </pattern>
  </defs>
  <rect width="800" height="600" fill="url(#bg)"/>
  <rect width="800" height="600" fill="url(#kh)"/>
  <circle cx="400" cy="240" r="60" fill="none" stroke="#C69E5A" stroke-width="4" opacity=".5"/>
  <path d="M340 240 A120 120 0 1 1 460 240" fill="#E9F1EC" stroke="#C69E5A" stroke-width="3"/>
  <path d="M360 240 A100 100 0 1 1 440 240" fill="none" stroke="#C69E5A" stroke-width="2" opacity=".5"/>
  <rect y="540" width="800" height="60" fill="#08251B"/>
  <g fill="#C69E5A"><path d="M60 570 l10 -10 10 10 -10 10 Z M730 570 l10 -10 10 10 -10 10 Z"/><rect x="340" y="566" width="120" height="4" rx="2" opacity=".6"/></g>
</svg>